<svg width="96" height="96" viewBox="0 0 96 96" fill="none" xmlns="http://www.w3.org/2000/svg">
<rect width="96" height="96" rx="48" fill="#DADADA"/>
<path d="M43.625 49.875C45.2083 49.5 46.6667 49.3125 48 49.3125C49.3333 49.3125 50.7917 49.5 52.375 49.875C53.9583 50.25 55.3958 50.875 56.6875 51.75C58.0208 52.625 58.6875 53.6042 58.6875 54.6875V58.6875H37.3125V54.6875C37.3125 53.6042 37.9583 52.625 39.25 51.75C40.5833 50.875 42.0417 50.25 43.625 49.875ZM44.25 38.9375C45.2917 37.8542 46.5417 37.3125 48 37.3125C49.4583 37.3125 50.7083 37.8542 51.75 38.9375C52.7917 39.9792 53.3125 41.2292 53.3125 42.6875C53.3125 44.1458 52.7917 45.3958 51.75 46.4375C50.7083 47.4792 49.4583 48 48 48C46.5417 48 45.2917 47.4792 44.25 46.4375C43.2083 45.3958 42.6875 44.1458 42.6875 42.6875C42.6875 41.2292 43.2083 39.9792 44.25 38.9375ZM53.4375 52.9375C51.6458 52.2292 49.8333 51.875 48 51.875C46.1667 51.875 44.3542 52.2292 42.5625 52.9375C40.7708 53.6042 39.875 54.1875 39.875 54.6875V56.125H56.125V54.6875C56.125 54.1875 55.2292 53.6042 53.4375 52.9375ZM50 40.6875C49.4583 40.1458 48.7917 39.875 48 39.875C47.2083 39.875 46.5417 40.1458 46 40.6875C45.4583 41.2292 45.1875 41.8958 45.1875 42.6875C45.1875 43.4792 45.4583 44.1458 46 44.6875C46.5417 45.1875 47.2083 45.4375 48 45.4375C48.7917 45.4375 49.4583 45.1875 50 44.6875C50.5417 44.1458 50.8125 43.4792 50.8125 42.6875C50.8125 41.8958 50.5417 41.2292 50 40.6875Z" fill="#1C1C1E"/>
</svg>
