<svg xmlns="http://www.w3.org/2000/svg" version="1.1" xmlns:xlink="http://www.w3.org/1999/xlink" xmlns:svgjs="http://svgjs.com/svgjs" width="1000" height="1000"><rect width="1000" height="1000" rx="200" ry="200" fill="#000000"></rect><g transform="matrix(5.714285714285714,0,0,5.714285714285714,100,100)"><svg xmlns="http://www.w3.org/2000/svg" version="1.1" xmlns:xlink="http://www.w3.org/1999/xlink" xmlns:svgjs="http://svgjs.com/svgjs" width="140" height="140"><svg width="140" height="140" viewBox="0 0 140 140" fill="none" xmlns="http://www.w3.org/2000/svg">
<rect width="140" height="140" fill="black"></rect>
<path d="M27.39 28.0871C13.0728 31.5697 2.6252 40.9855 1.46435 51.1751C0.432482 59.946 4.68893 63.8155 18.2322 66.7821C21.7147 67.556 21.8437 67.943 21.0698 72.5864C20.4249 76.7138 20.8118 78.1326 23.6495 81.4862C26.6161 84.9687 28.0349 85.6137 32.8073 85.6137C36.0318 85.6137 41.7071 84.4528 45.5766 83.163C53.1866 80.4543 53.3156 80.8413 47.3824 87.9354C44.5447 91.1599 41.8361 92.4498 33.3232 94.5135C21.5857 97.3511 11.654 101.866 9.59029 105.219C7.26859 109.089 10.2352 112.055 17.0713 112.442C25.3262 112.958 35.2579 108.315 44.6737 99.4149C53.1866 91.2889 56.0242 90.2571 70.0834 90.1281C77.8224 90.1281 81.8209 89.3542 86.2063 87.2904C93.9453 83.5499 100.265 76.8428 101.168 71.1675C101.813 67.298 101.426 66.2662 98.4597 63.9445C93.6873 60.075 88.27 60.4619 79.4992 64.8474C75.3717 66.9111 72.0182 68.0719 72.0182 67.427C72.0182 65.3633 69.4385 66.1372 64.7951 69.6197C58.8619 74.1342 59.2488 71.1675 65.311 65.3633C76.6616 54.6577 94.3323 49.4984 110.068 52.465C126.707 55.6896 126.707 55.4316 112.261 69.8777C105.425 76.8428 95.1062 87.5484 89.4309 93.6106C77.8224 106.251 71.1153 110.12 61.0546 110.12C52.9286 110.12 50.6069 108.831 52.4127 105.348C54.8634 100.834 49.4461 97.7381 46.2215 101.737C44.8027 103.413 44.8027 104.316 46.2215 106.896C48.4142 111.152 53.9605 113.087 62.9893 112.958C74.0819 112.829 86.4643 106.122 96.7829 94.6425C104.006 86.7745 104.909 86.1296 107.618 87.4194C109.294 88.1933 110.713 89.3542 110.713 90.1281C110.713 90.773 107.875 94.2555 104.393 97.8671C97.1699 105.219 95.4931 108.96 98.4597 111.41C102.587 114.893 111.616 112.442 118.323 106.122C123.096 101.737 119.613 101.737 112.519 106.251C106.586 109.991 101.684 111.281 101.684 109.089C101.684 108.444 103.49 106.38 105.683 104.187C110.326 99.8018 113.293 94.6425 113.293 90.902C113.293 88.8382 115.357 87.2904 121.677 84.4528C133.93 78.9065 137.8 71.2965 133.156 62.1387C131.092 58.2692 131.221 58.0113 134.059 55.8185C135.736 54.5287 137.671 53.3679 138.187 53.3679C138.831 53.3679 138.831 52.8519 138.445 52.078C137.929 51.3041 136.123 51.5621 133.672 52.8519C129.545 55.0446 127.61 54.7867 118.452 51.4331C113.938 49.7563 109.552 49.3694 97.8148 49.7563C84.4005 50.2723 82.3368 50.6592 75.8877 54.0128C67.6327 58.5272 56.9271 68.5879 55.8953 73.1023C54.4764 78.5196 34.0971 84.9687 28.2929 81.7442C25.0683 80.0674 24.8103 75.424 27.39 70.2647C28.9378 67.427 30.7435 66.3952 36.2898 65.1053C54.4764 61.1069 82.4658 48.0795 89.3019 40.4695C93.9453 35.1812 94.7192 33.3755 92.9134 30.5378C89.8178 25.6365 78.9833 26.6683 62.9893 33.5044C49.833 39.1797 39.1274 46.4028 30.8725 55.4316C24.0364 63.0416 22.8756 63.6865 18.1032 63.6865C11.654 63.6865 4.94689 58.6562 4.94689 53.8838C4.94689 44.0811 16.5554 34.0204 30.8725 31.4407C44.2868 28.99 44.9317 28.861 44.9317 27.5712C44.9317 25.8944 35.5159 26.1524 27.39 28.0871ZM88.786 31.4407C95.3641 35.5682 73.179 49.8853 46.2215 59.0431C36.0318 62.3967 33.3232 62.6547 34.2261 60.333C35.5159 56.8504 55.2503 42.0173 64.9241 37.116C72.5341 33.3755 76.1456 32.2146 86.2063 30.2799C86.5933 30.2799 87.7541 30.6668 88.786 31.4407ZM129.803 65.6213C130.577 73.7472 116.517 87.0325 111.1 83.5499C109.939 82.776 108.778 81.6152 108.52 80.9703C108.262 80.3253 112.003 75.553 116.646 70.3936C125.933 60.333 129.158 59.0431 129.803 65.6213ZM97.8148 67.427C101.039 73.6182 92.1395 82.3891 78.4673 86.1296C68.6646 88.9672 65.0531 88.0643 69.3095 84.1948C73.308 80.4543 71.7602 79.6804 66.6009 82.776C59.1198 87.2904 56.9271 84.1948 62.4734 76.9718C66.0849 72.3284 68.0197 71.9414 65.569 76.4559C63.2473 80.9703 66.9878 79.8094 70.9863 74.7791C77.6934 66.2662 94.7192 61.6228 97.8148 67.427ZM57.83 86.9035C57.83 87.5484 56.9271 88.1933 55.7663 88.1933C54.7344 88.1933 54.2185 87.5484 54.6054 86.9035C54.9924 86.1296 55.8953 85.6137 56.6692 85.6137C57.3141 85.6137 57.83 86.1296 57.83 86.9035ZM38.4825 96.9642C38.4825 98.641 31.7754 104.445 27.132 106.767C22.1017 109.347 13.8467 109.991 13.0728 107.928C12.2989 105.735 18.2322 102.252 28.0349 98.8989C37.8376 95.6743 38.4825 95.5454 38.4825 96.9642Z" fill="white"></path>
</svg></svg></g></svg>